<svg xmlns="http://www.w3.org/2000/svg" xmlns:xlink="http://www.w3.org/1999/xlink" width="500" zoomAndPan="magnify" viewBox="0 0 375 187.499995" height="250" preserveAspectRatio="xMidYMid meet" version="1.0"><defs><g/><clipPath id="e87d175e78"><path d="M 0.5 50.089844 L 62.328125 50.089844 L 62.328125 136.742188 L 0.5 136.742188 Z M 0.5 50.089844 " clip-rule="nonzero"/></clipPath></defs><g clip-path="url(#e87d175e78)"><path fill="#ff5757" d="M 7.539062 76.175781 C 15.160156 73.621094 23.164062 72.226562 31.238281 72.085938 C 31.699219 72.074219 32.15625 72.074219 32.617188 72.074219 C 40.511719 72.074219 48.363281 73.265625 55.882812 75.582031 L 58.125 73.339844 L 62.328125 50.089844 L 53.179688 50.089844 L 53.179688 58.25 L 46.75 58.25 L 46.75 50.089844 L 40.316406 50.089844 L 40.316406 58.25 L 35.371094 58.25 L 35.371094 50.089844 L 27.457031 50.089844 L 27.457031 58.25 L 22.511719 58.25 L 22.511719 50.089844 L 16.078125 50.089844 L 16.078125 58.25 L 9.648438 58.25 L 9.648438 50.089844 L 0.5 50.089844 L 4.703125 73.339844 Z M 31.304688 75.792969 C 23.902344 75.925781 16.558594 77.160156 9.542969 79.417969 L 4.207031 136.902344 L 22.992188 136.902344 L 22.992188 120.59375 C 22.992188 115.945312 26.761719 112.171875 31.414062 112.171875 C 36.066406 112.171875 39.835938 115.945312 39.835938 120.59375 L 39.835938 136.902344 L 58.621094 136.902344 L 53.214844 78.660156 C 46.109375 76.644531 38.71875 75.664062 31.304688 75.792969 " fill-opacity="1" fill-rule="nonzero"/></g><g fill="#111111" fill-opacity="1"><g transform="translate(62.338827, 114.634321)"><g><path d="M 32.78125 -29.171875 L 32.78125 -46.96875 L 42.59375 -46.96875 L 42.59375 0 L 32.78125 0 L 32.78125 -21.0625 L 14.453125 -21.0625 L 14.453125 0 L 4.640625 0 L 4.640625 -46.96875 L 14.453125 -46.96875 L 14.453125 -29.171875 Z M 32.78125 -29.171875 "/></g></g></g><g fill="#111111" fill-opacity="1"><g transform="translate(109.567154, 114.634321)"><g><path d="M 34.484375 -1.375 L 34.484375 0 L 24.59375 0 C 24.070312 -1.53125 23.789062 -2.90625 23.75 -4.125 C 22.09375 -2.332031 20.367188 -1.039062 18.578125 -0.25 C 16.785156 0.53125 14.757812 0.921875 12.5 0.921875 C 9.3125 0.921875 6.742188 0.00390625 4.796875 -1.828125 C 2.859375 -3.660156 1.890625 -6.125 1.890625 -9.21875 C 1.890625 -12.144531 2.6875 -14.578125 4.28125 -16.515625 C 5.875 -18.460938 8.722656 -19.785156 12.828125 -20.484375 L 19.359375 -21.453125 C 21.015625 -21.710938 22.113281 -22.039062 22.65625 -22.4375 C 23.207031 -22.832031 23.484375 -23.488281 23.484375 -24.40625 C 23.484375 -25.707031 23.015625 -26.695312 22.078125 -27.375 C 21.140625 -28.050781 19.601562 -28.390625 17.46875 -28.390625 C 14.019531 -28.390625 12.144531 -26.773438 11.84375 -23.546875 L 3.015625 -23.546875 C 3.359375 -27.515625 4.695312 -30.535156 7.03125 -32.609375 C 9.363281 -34.679688 13.125 -35.71875 18.3125 -35.71875 C 22.757812 -35.71875 26.226562 -34.84375 28.71875 -33.09375 C 31.207031 -31.351562 32.453125 -28.957031 32.453125 -25.90625 L 32.453125 -6.484375 C 32.453125 -4.867188 32.613281 -3.675781 32.9375 -2.90625 C 33.269531 -2.144531 33.785156 -1.632812 34.484375 -1.375 Z M 23.484375 -12.625 L 23.484375 -16.9375 C 22.703125 -16.457031 21.851562 -16.078125 20.9375 -15.796875 C 20.019531 -15.515625 18.6875 -15.242188 16.9375 -14.984375 C 14.976562 -14.722656 13.507812 -14.1875 12.53125 -13.375 C 11.550781 -12.570312 11.0625 -11.382812 11.0625 -9.8125 C 11.0625 -8.550781 11.453125 -7.535156 12.234375 -6.765625 C 13.015625 -6.003906 14.039062 -5.625 15.3125 -5.625 C 16.664062 -5.625 17.972656 -5.914062 19.234375 -6.5 C 20.492188 -7.09375 21.515625 -7.921875 22.296875 -8.984375 C 23.085938 -10.054688 23.484375 -11.269531 23.484375 -12.625 Z M 23.484375 -12.625 "/></g></g></g><g fill="#111111" fill-opacity="1"><g transform="translate(145.936886, 114.634321)"><g><path d="M 35.71875 -24.34375 L 35.71875 0 L 26.5625 0 L 26.5625 -22.046875 C 26.5625 -23.960938 26.046875 -25.429688 25.015625 -26.453125 C 23.992188 -27.484375 22.523438 -28 20.609375 -28 C 18.472656 -28 16.738281 -27.300781 15.40625 -25.90625 C 14.070312 -24.507812 13.40625 -22.613281 13.40625 -20.21875 L 13.40625 0 L 4.25 0 L 4.25 -34.796875 L 13.015625 -34.796875 L 13.015625 -29.703125 L 13.15625 -29.703125 C 14.238281 -31.753906 15.675781 -33.269531 17.46875 -34.25 C 19.257812 -35.226562 21.3125 -35.71875 23.625 -35.71875 C 26.019531 -35.71875 28.128906 -35.226562 29.953125 -34.25 C 31.785156 -33.269531 33.203125 -31.914062 34.203125 -30.1875 C 35.210938 -28.46875 35.71875 -26.519531 35.71875 -24.34375 Z M 35.71875 -24.34375 "/></g></g></g><g fill="#111111" fill-opacity="1"><g transform="translate(185.904342, 114.634321)"><g><path d="M 20.609375 -40.109375 C 18.210938 -40.109375 16.25 -39.59375 14.71875 -38.5625 C 13.195312 -37.539062 12.4375 -36.179688 12.4375 -34.484375 C 12.4375 -33.210938 12.796875 -32.171875 13.515625 -31.359375 C 14.234375 -30.554688 15.722656 -29.894531 17.984375 -29.375 L 29.046875 -26.6875 C 33.578125 -25.601562 36.726562 -24.035156 38.5 -21.984375 C 40.269531 -19.929688 41.15625 -17.3125 41.15625 -14.125 C 41.15625 -10.769531 40.335938 -7.9375 38.703125 -5.625 C 37.066406 -3.3125 34.851562 -1.585938 32.0625 -0.453125 C 29.269531 0.679688 26.109375 1.25 22.578125 1.25 C 16.378906 1.25 11.535156 -0.0546875 8.046875 -2.671875 C 4.554688 -5.296875 2.722656 -9.222656 2.546875 -14.453125 L 11.96875 -14.453125 C 12.0625 -12.054688 12.957031 -10.191406 14.65625 -8.859375 C 16.351562 -7.535156 18.773438 -6.875 21.921875 -6.875 C 25.097656 -6.875 27.523438 -7.375 29.203125 -8.375 C 30.890625 -9.375 31.734375 -10.898438 31.734375 -12.953125 C 31.734375 -14.265625 31.285156 -15.289062 30.390625 -16.03125 C 29.492188 -16.769531 28 -17.441406 25.90625 -18.046875 C 23.8125 -18.660156 20.320312 -19.515625 15.4375 -20.609375 C 11.164062 -21.566406 8.066406 -23.09375 6.140625 -25.1875 C 4.222656 -27.28125 3.265625 -30.132812 3.265625 -33.75 C 3.265625 -36.539062 3.929688 -39.023438 5.265625 -41.203125 C 6.597656 -43.390625 8.613281 -45.101562 11.3125 -46.34375 C 14.019531 -47.59375 17.359375 -48.21875 21.328125 -48.21875 C 24.941406 -48.21875 28.113281 -47.59375 30.84375 -46.34375 C 33.570312 -45.101562 35.695312 -43.335938 37.21875 -41.046875 C 38.75 -38.765625 39.554688 -36.09375 39.640625 -33.03125 L 30.21875 -33.03125 C 29.789062 -37.75 26.585938 -40.109375 20.609375 -40.109375 Z M 20.609375 -40.109375 "/></g></g></g><g fill="#111111" fill-opacity="1"><g transform="translate(229.534945, 114.634321)"><g><path d="M 20.21875 -34.796875 L 20.21875 -28.265625 L 14.53125 -28.265625 L 14.53125 -8.828125 C 14.53125 -7.910156 14.78125 -7.300781 15.28125 -7 C 15.78125 -6.695312 16.769531 -6.546875 18.25 -6.546875 C 18.601562 -6.546875 19.257812 -6.585938 20.21875 -6.671875 L 20.21875 0.265625 C 17.769531 0.347656 16.132812 0.390625 15.3125 0.390625 C 12.519531 0.390625 10.398438 0.0976562 8.953125 -0.484375 C 7.515625 -1.078125 6.554688 -1.90625 6.078125 -2.96875 C 5.597656 -4.039062 5.359375 -5.453125 5.359375 -7.203125 L 5.359375 -28.265625 L 0.65625 -28.265625 L 0.65625 -34.796875 L 5.359375 -34.796875 L 5.359375 -44.21875 L 14.53125 -44.21875 L 14.53125 -34.796875 Z M 20.21875 -34.796875 "/></g></g></g><g fill="#111111" fill-opacity="1"><g transform="translate(251.317534, 114.634321)"><g><path d="M 37.8125 -17.40625 C 37.8125 -13.65625 37.066406 -10.40625 35.578125 -7.65625 C 34.097656 -4.90625 32.003906 -2.785156 29.296875 -1.296875 C 26.597656 0.179688 23.503906 0.921875 20.015625 0.921875 C 16.523438 0.921875 13.425781 0.179688 10.71875 -1.296875 C 8.019531 -2.785156 5.925781 -4.90625 4.4375 -7.65625 C 2.957031 -10.40625 2.21875 -13.65625 2.21875 -17.40625 C 2.21875 -21.15625 2.96875 -24.414062 4.46875 -27.1875 C 5.976562 -29.957031 8.082031 -32.070312 10.78125 -33.53125 C 13.488281 -34.988281 16.566406 -35.71875 20.015625 -35.71875 C 23.503906 -35.71875 26.597656 -34.972656 29.296875 -33.484375 C 32.003906 -32.003906 34.097656 -29.890625 35.578125 -27.140625 C 37.066406 -24.398438 37.8125 -21.15625 37.8125 -17.40625 Z M 20.015625 -6.796875 C 22.804688 -6.796875 24.898438 -7.722656 26.296875 -9.578125 C 27.691406 -11.429688 28.390625 -14.039062 28.390625 -17.40625 C 28.390625 -20.757812 27.679688 -23.363281 26.265625 -25.21875 C 24.847656 -27.070312 22.742188 -28 19.953125 -28 C 17.296875 -28 15.242188 -27.082031 13.796875 -25.25 C 12.359375 -23.414062 11.640625 -20.800781 11.640625 -17.40625 C 11.640625 -13.957031 12.347656 -11.328125 13.765625 -9.515625 C 15.179688 -7.703125 17.265625 -6.796875 20.015625 -6.796875 Z M 20.015625 -6.796875 "/></g></g></g><g fill="#111111" fill-opacity="1"><g transform="translate(291.28499, 114.634321)"><g><path d="M 24.40625 -35.59375 L 24.40625 -26.296875 C 23.707031 -26.390625 22.878906 -26.4375 21.921875 -26.4375 C 16.203125 -26.4375 13.34375 -23.726562 13.34375 -18.3125 L 13.34375 0 L 4.1875 0 L 4.1875 -34.796875 L 12.953125 -34.796875 L 12.953125 -28.78125 L 13.078125 -28.78125 C 14.390625 -31.351562 15.785156 -33.148438 17.265625 -34.171875 C 18.753906 -35.203125 20.546875 -35.71875 22.640625 -35.71875 C 22.859375 -35.71875 23.445312 -35.675781 24.40625 -35.59375 Z M 24.40625 -35.59375 "/></g></g></g><g fill="#111111" fill-opacity="1"><g transform="translate(316.730715, 114.634321)"><g><path d="M 4.515625 -38.921875 L 4.515625 -47.4375 L 13.671875 -47.4375 L 13.671875 -38.921875 Z M 4.515625 0 L 4.515625 -34.796875 L 13.671875 -34.796875 L 13.671875 0 Z M 4.515625 0 "/></g></g></g><g fill="#111111" fill-opacity="1"><g transform="translate(334.915582, 114.634321)"><g><path d="M 34.484375 -1.375 L 34.484375 0 L 24.59375 0 C 24.070312 -1.53125 23.789062 -2.90625 23.75 -4.125 C 22.09375 -2.332031 20.367188 -1.039062 18.578125 -0.25 C 16.785156 0.53125 14.757812 0.921875 12.5 0.921875 C 9.3125 0.921875 6.742188 0.00390625 4.796875 -1.828125 C 2.859375 -3.660156 1.890625 -6.125 1.890625 -9.21875 C 1.890625 -12.144531 2.6875 -14.578125 4.28125 -16.515625 C 5.875 -18.460938 8.722656 -19.785156 12.828125 -20.484375 L 19.359375 -21.453125 C 21.015625 -21.710938 22.113281 -22.039062 22.65625 -22.4375 C 23.207031 -22.832031 23.484375 -23.488281 23.484375 -24.40625 C 23.484375 -25.707031 23.015625 -26.695312 22.078125 -27.375 C 21.140625 -28.050781 19.601562 -28.390625 17.46875 -28.390625 C 14.019531 -28.390625 12.144531 -26.773438 11.84375 -23.546875 L 3.015625 -23.546875 C 3.359375 -27.515625 4.695312 -30.535156 7.03125 -32.609375 C 9.363281 -34.679688 13.125 -35.71875 18.3125 -35.71875 C 22.757812 -35.71875 26.226562 -34.84375 28.71875 -33.09375 C 31.207031 -31.351562 32.453125 -28.957031 32.453125 -25.90625 L 32.453125 -6.484375 C 32.453125 -4.867188 32.613281 -3.675781 32.9375 -2.90625 C 33.269531 -2.144531 33.785156 -1.632812 34.484375 -1.375 Z M 23.484375 -12.625 L 23.484375 -16.9375 C 22.703125 -16.457031 21.851562 -16.078125 20.9375 -15.796875 C 20.019531 -15.515625 18.6875 -15.242188 16.9375 -14.984375 C 14.976562 -14.722656 13.507812 -14.1875 12.53125 -13.375 C 11.550781 -12.570312 11.0625 -11.382812 11.0625 -9.8125 C 11.0625 -8.550781 11.453125 -7.535156 12.234375 -6.765625 C 13.015625 -6.003906 14.039062 -5.625 15.3125 -5.625 C 16.664062 -5.625 17.972656 -5.914062 19.234375 -6.5 C 20.492188 -7.09375 21.515625 -7.921875 22.296875 -8.984375 C 23.085938 -10.054688 23.484375 -11.269531 23.484375 -12.625 Z M 23.484375 -12.625 "/></g></g></g></svg>