<svg xmlns="http://www.w3.org/2000/svg" xmlns:xlink="http://www.w3.org/1999/xlink" width="1080" zoomAndPan="magnify" viewBox="0 0 810 809.999993" height="1080" preserveAspectRatio="xMidYMid meet" version="1.0"><defs><g/><clipPath id="e45e8ff5ea"><path d="M 13.261719 319.074219 L 135.511719 319.074219 L 135.511719 490.914062 L 13.261719 490.914062 Z M 13.261719 319.074219 " clip-rule="nonzero"/></clipPath></defs><g clip-path="url(#e45e8ff5ea)"><path fill="#ff5757" d="M 27.195312 370.707031 C 42.285156 365.652344 58.128906 362.894531 74.109375 362.613281 C 75.019531 362.597656 75.929688 362.589844 76.839844 362.589844 C 92.464844 362.589844 108.011719 364.953125 122.890625 369.539062 L 127.332031 365.09375 L 135.65625 319.074219 L 117.539062 319.074219 L 117.539062 335.230469 L 104.8125 335.230469 L 104.8125 319.074219 L 92.082031 319.074219 L 92.082031 335.230469 L 82.292969 335.230469 L 82.292969 319.074219 L 66.625 319.074219 L 66.625 335.230469 L 56.835938 335.230469 L 56.835938 319.074219 L 44.105469 319.074219 L 44.105469 335.230469 L 31.375 335.230469 L 31.375 319.074219 L 13.261719 319.074219 L 21.585938 365.09375 Z M 74.238281 369.957031 C 59.585938 370.210938 45.054688 372.65625 31.167969 377.132812 L 20.605469 490.914062 L 57.785156 490.914062 L 57.785156 458.640625 C 57.785156 449.429688 65.25 441.964844 74.457031 441.964844 C 83.667969 441.964844 91.128906 449.429688 91.128906 458.640625 L 91.128906 490.914062 L 128.3125 490.914062 L 117.609375 375.632812 C 103.550781 371.636719 88.917969 369.699219 74.238281 369.957031 " fill-opacity="1" fill-rule="nonzero"/></g><g fill="#bfcde0" fill-opacity="1"><g transform="translate(153.651778, 444.718731)"><g><path d="M 67.515625 -60.109375 L 67.515625 -96.765625 L 87.734375 -96.765625 L 87.734375 0 L 67.515625 0 L 67.515625 -43.390625 L 29.78125 -43.390625 L 29.78125 0 L 9.5625 0 L 9.5625 -96.765625 L 29.78125 -96.765625 L 29.78125 -60.109375 Z M 67.515625 -60.109375 "/></g></g></g><g fill="#bfcde0" fill-opacity="1"><g transform="translate(250.947792, 444.718731)"><g><path d="M 71.015625 -2.828125 L 71.015625 0 L 50.671875 0 C 49.597656 -3.144531 49.015625 -5.972656 48.921875 -8.484375 C 45.503906 -4.804688 41.953125 -2.15625 38.265625 -0.53125 C 34.585938 1.082031 30.410156 1.890625 25.734375 1.890625 C 19.179688 1.890625 13.90625 0.00390625 9.90625 -3.765625 C 5.90625 -7.546875 3.90625 -12.625 3.90625 -19 C 3.90625 -25.019531 5.546875 -30.03125 8.828125 -34.03125 C 12.109375 -38.03125 17.972656 -40.75 26.421875 -42.1875 L 39.890625 -44.203125 C 43.304688 -44.742188 45.570312 -45.414062 46.6875 -46.21875 C 47.8125 -47.03125 48.375 -48.378906 48.375 -50.265625 C 48.375 -52.960938 47.410156 -55.003906 45.484375 -56.390625 C 43.554688 -57.785156 40.390625 -58.484375 35.984375 -58.484375 C 28.890625 -58.484375 25.023438 -55.160156 24.390625 -48.515625 L 6.203125 -48.515625 C 6.921875 -56.691406 9.679688 -62.910156 14.484375 -67.171875 C 19.296875 -71.441406 27.046875 -73.578125 37.734375 -73.578125 C 46.898438 -73.578125 54.039062 -71.78125 59.15625 -68.1875 C 64.28125 -64.59375 66.84375 -59.65625 66.84375 -53.375 L 66.84375 -13.34375 C 66.84375 -10.019531 67.175781 -7.570312 67.84375 -6 C 68.519531 -4.425781 69.578125 -3.367188 71.015625 -2.828125 Z M 48.375 -26.015625 L 48.375 -34.90625 C 46.757812 -33.914062 45.007812 -33.128906 43.125 -32.546875 C 41.238281 -31.960938 38.5 -31.398438 34.90625 -30.859375 C 30.863281 -30.316406 27.832031 -29.210938 25.8125 -27.546875 C 23.789062 -25.890625 22.78125 -23.445312 22.78125 -20.21875 C 22.78125 -17.613281 23.585938 -15.523438 25.203125 -13.953125 C 26.816406 -12.378906 28.925781 -11.59375 31.53125 -11.59375 C 34.320312 -11.59375 37.019531 -12.195312 39.625 -13.40625 C 42.226562 -14.625 44.335938 -16.332031 45.953125 -18.53125 C 47.566406 -20.726562 48.375 -23.222656 48.375 -26.015625 Z M 48.375 -26.015625 "/></g></g></g><g fill="#bfcde0" fill-opacity="1"><g transform="translate(325.873809, 444.718731)"><g><path d="M 73.578125 -50.140625 L 73.578125 0 L 54.71875 0 L 54.71875 -45.421875 C 54.71875 -49.367188 53.660156 -52.398438 51.546875 -54.515625 C 49.429688 -56.628906 46.398438 -57.6875 42.453125 -57.6875 C 38.046875 -57.6875 34.472656 -56.25 31.734375 -53.375 C 28.992188 -50.5 27.625 -46.585938 27.625 -41.640625 L 27.625 0 L 8.765625 0 L 8.765625 -71.703125 L 26.8125 -71.703125 L 26.8125 -61.1875 L 27.09375 -61.1875 C 29.332031 -65.40625 32.296875 -68.523438 35.984375 -70.546875 C 39.671875 -72.566406 43.894531 -73.578125 48.65625 -73.578125 C 53.59375 -73.578125 57.945312 -72.566406 61.71875 -70.546875 C 65.5 -68.523438 68.421875 -65.738281 70.484375 -62.1875 C 72.546875 -58.644531 73.578125 -54.628906 73.578125 -50.140625 Z M 73.578125 -50.140625 "/></g></g></g><g fill="#bfcde0" fill-opacity="1"><g transform="translate(408.211551, 444.718731)"><g><path d="M 42.453125 -82.609375 C 37.515625 -82.609375 33.472656 -81.550781 30.328125 -79.4375 C 27.179688 -77.332031 25.609375 -74.523438 25.609375 -71.015625 C 25.609375 -68.410156 26.347656 -66.273438 27.828125 -64.609375 C 29.304688 -62.953125 32.382812 -61.585938 37.0625 -60.515625 L 59.84375 -54.984375 C 69.1875 -52.734375 75.675781 -49.5 79.3125 -45.28125 C 82.945312 -41.0625 84.765625 -35.671875 84.765625 -29.109375 C 84.765625 -22.191406 83.078125 -16.351562 79.703125 -11.59375 C 76.335938 -6.832031 71.78125 -3.28125 66.03125 -0.9375 C 60.28125 1.394531 53.769531 2.5625 46.5 2.5625 C 33.738281 2.5625 23.765625 -0.128906 16.578125 -5.515625 C 9.390625 -10.910156 5.613281 -19 5.25 -29.78125 L 24.65625 -29.78125 C 24.84375 -24.84375 26.6875 -21.003906 30.1875 -18.265625 C 33.6875 -15.523438 38.671875 -14.15625 45.140625 -14.15625 C 51.703125 -14.15625 56.710938 -15.1875 60.171875 -17.25 C 63.628906 -19.3125 65.359375 -22.457031 65.359375 -26.6875 C 65.359375 -29.382812 64.4375 -31.492188 62.59375 -33.015625 C 60.757812 -34.546875 57.6875 -35.9375 53.375 -37.1875 C 49.0625 -38.445312 41.875 -40.203125 31.8125 -42.453125 C 23 -44.429688 16.613281 -47.578125 12.65625 -51.890625 C 8.707031 -56.203125 6.734375 -62.085938 6.734375 -69.546875 C 6.734375 -75.296875 8.101562 -80.414062 10.84375 -84.90625 C 13.582031 -89.394531 17.738281 -92.921875 23.3125 -95.484375 C 28.882812 -98.046875 35.757812 -99.328125 43.9375 -99.328125 C 51.394531 -99.328125 57.929688 -98.046875 63.546875 -95.484375 C 69.160156 -92.921875 73.539062 -89.28125 76.6875 -84.5625 C 79.832031 -79.84375 81.492188 -74.34375 81.671875 -68.0625 L 62.265625 -68.0625 C 61.367188 -77.757812 54.765625 -82.609375 42.453125 -82.609375 Z M 42.453125 -82.609375 "/></g></g></g><g fill="#bfcde0" fill-opacity="1"><g transform="translate(498.095813, 444.718731)"><g><path d="M 41.640625 -71.703125 L 41.640625 -58.21875 L 29.921875 -58.21875 L 29.921875 -18.1875 C 29.921875 -16.300781 30.4375 -15.046875 31.46875 -14.421875 C 32.5 -13.796875 34.539062 -13.484375 37.59375 -13.484375 C 38.3125 -13.484375 39.660156 -13.570312 41.640625 -13.75 L 41.640625 0.546875 C 36.609375 0.722656 33.238281 0.8125 31.53125 0.8125 C 25.78125 0.8125 21.421875 0.207031 18.453125 -1 C 15.492188 -2.21875 13.519531 -3.925781 12.53125 -6.125 C 11.539062 -8.332031 11.046875 -11.234375 11.046875 -14.828125 L 11.046875 -58.21875 L 1.34375 -58.21875 L 1.34375 -71.703125 L 11.046875 -71.703125 L 11.046875 -91.109375 L 29.921875 -91.109375 L 29.921875 -71.703125 Z M 41.640625 -71.703125 "/></g></g></g><g fill="#bfcde0" fill-opacity="1"><g transform="translate(542.970545, 444.718731)"><g><path d="M 77.890625 -35.84375 C 77.890625 -28.125 76.363281 -21.429688 73.3125 -15.765625 C 70.257812 -10.109375 65.945312 -5.75 60.375 -2.6875 C 54.800781 0.363281 48.421875 1.890625 41.234375 1.890625 C 34.046875 1.890625 27.664062 0.363281 22.09375 -2.6875 C 16.53125 -5.75 12.21875 -10.109375 9.15625 -15.765625 C 6.101562 -21.429688 4.578125 -28.125 4.578125 -35.84375 C 4.578125 -43.570312 6.125 -50.285156 9.21875 -55.984375 C 12.320312 -61.691406 16.660156 -66.050781 22.234375 -69.0625 C 27.804688 -72.070312 34.140625 -73.578125 41.234375 -73.578125 C 48.421875 -73.578125 54.800781 -72.050781 60.375 -69 C 65.945312 -65.945312 70.257812 -61.585938 73.3125 -55.921875 C 76.363281 -50.265625 77.890625 -43.570312 77.890625 -35.84375 Z M 41.234375 -14.015625 C 46.984375 -14.015625 51.296875 -15.921875 54.171875 -19.734375 C 57.046875 -23.554688 58.484375 -28.925781 58.484375 -35.84375 C 58.484375 -42.757812 57.023438 -48.128906 54.109375 -51.953125 C 51.191406 -55.773438 46.859375 -57.6875 41.109375 -57.6875 C 35.628906 -57.6875 31.40625 -55.796875 28.4375 -52.015625 C 25.46875 -48.242188 23.984375 -42.851562 23.984375 -35.84375 C 23.984375 -28.75 25.441406 -23.335938 28.359375 -19.609375 C 31.285156 -15.878906 35.578125 -14.015625 41.234375 -14.015625 Z M 41.234375 -14.015625 "/></g></g></g><g fill="#bfcde0" fill-opacity="1"><g transform="translate(625.308314, 444.718731)"><g><path d="M 50.265625 -73.3125 L 50.265625 -54.171875 C 48.828125 -54.359375 47.117188 -54.453125 45.140625 -54.453125 C 33.378906 -54.453125 27.5 -48.878906 27.5 -37.734375 L 27.5 0 L 8.625 0 L 8.625 -71.703125 L 26.6875 -71.703125 L 26.6875 -59.296875 L 26.953125 -59.296875 C 29.648438 -64.597656 32.523438 -68.300781 35.578125 -70.40625 C 38.628906 -72.519531 42.3125 -73.578125 46.625 -73.578125 C 47.070312 -73.578125 48.285156 -73.488281 50.265625 -73.3125 Z M 50.265625 -73.3125 "/></g></g></g><g fill="#bfcde0" fill-opacity="1"><g transform="translate(677.72954, 444.718731)"><g><path d="M 9.296875 -80.1875 L 9.296875 -97.703125 L 28.171875 -97.703125 L 28.171875 -80.1875 Z M 9.296875 0 L 9.296875 -71.703125 L 28.171875 -71.703125 L 28.171875 0 Z M 9.296875 0 "/></g></g></g><g fill="#bfcde0" fill-opacity="1"><g transform="translate(715.192549, 444.718731)"><g><path d="M 71.015625 -2.828125 L 71.015625 0 L 50.671875 0 C 49.597656 -3.144531 49.015625 -5.972656 48.921875 -8.484375 C 45.503906 -4.804688 41.953125 -2.15625 38.265625 -0.53125 C 34.585938 1.082031 30.410156 1.890625 25.734375 1.890625 C 19.179688 1.890625 13.90625 0.00390625 9.90625 -3.765625 C 5.90625 -7.546875 3.90625 -12.625 3.90625 -19 C 3.90625 -25.019531 5.546875 -30.03125 8.828125 -34.03125 C 12.109375 -38.03125 17.972656 -40.75 26.421875 -42.1875 L 39.890625 -44.203125 C 43.304688 -44.742188 45.570312 -45.414062 46.6875 -46.21875 C 47.8125 -47.03125 48.375 -48.378906 48.375 -50.265625 C 48.375 -52.960938 47.410156 -55.003906 45.484375 -56.390625 C 43.554688 -57.785156 40.390625 -58.484375 35.984375 -58.484375 C 28.890625 -58.484375 25.023438 -55.160156 24.390625 -48.515625 L 6.203125 -48.515625 C 6.921875 -56.691406 9.679688 -62.910156 14.484375 -67.171875 C 19.296875 -71.441406 27.046875 -73.578125 37.734375 -73.578125 C 46.898438 -73.578125 54.039062 -71.78125 59.15625 -68.1875 C 64.28125 -64.59375 66.84375 -59.65625 66.84375 -53.375 L 66.84375 -13.34375 C 66.84375 -10.019531 67.175781 -7.570312 67.84375 -6 C 68.519531 -4.425781 69.578125 -3.367188 71.015625 -2.828125 Z M 48.375 -26.015625 L 48.375 -34.90625 C 46.757812 -33.914062 45.007812 -33.128906 43.125 -32.546875 C 41.238281 -31.960938 38.5 -31.398438 34.90625 -30.859375 C 30.863281 -30.316406 27.832031 -29.210938 25.8125 -27.546875 C 23.789062 -25.890625 22.78125 -23.445312 22.78125 -20.21875 C 22.78125 -17.613281 23.585938 -15.523438 25.203125 -13.953125 C 26.816406 -12.378906 28.925781 -11.59375 31.53125 -11.59375 C 34.320312 -11.59375 37.019531 -12.195312 39.625 -13.40625 C 42.226562 -14.625 44.335938 -16.332031 45.953125 -18.53125 C 47.566406 -20.726562 48.375 -23.222656 48.375 -26.015625 Z M 48.375 -26.015625 "/></g></g></g></svg>