<svg width="40" height="36" viewBox="0 0 40 36" fill="none" xmlns="http://www.w3.org/2000/svg">
<path d="M22.436 23.5069C21.0598 24.331 19.4852 24.7649 17.8811 24.7621C16.7145 24.7637 15.5592 24.5347 14.4815 24.0883C13.4038 23.6419 12.4249 22.9869 11.6012 22.1609C10.7752 21.3372 10.1202 20.3583 9.6738 19.2806C9.2274 18.2029 8.99842 17.0476 9.00001 15.8811C9.00001 13.4286 9.99337 11.209 11.6012 9.60117C12.4249 8.77521 13.4038 8.1202 14.4815 7.6738C15.5592 7.2274 16.7145 6.99842 17.8811 7.00001C20.3335 7.00001 22.5531 7.99337 24.1609 9.60117C24.9869 10.4249 25.6419 11.4038 26.0883 12.4815C26.5347 13.5592 26.7637 14.7145 26.7621 15.8811C26.7644 17.4565 26.3461 19.004 25.5503 20.3637C24.8701 21.5241 24.9793 22.9793 25.9306 23.9306L31 29" stroke="#111111" stroke-width="2.5"/>
</svg>
