<svg xmlns="http://www.w3.org/2000/svg" width="37" height="36" viewBox="0 0 37 36" fill="none">
	<g clip-path="url(#clip0_24_21)">
		<g filter="url(#filter0_d_24_21)">
			<path d="M19.0178 9.75C20.5303 9.75 21.7678 10.9875 21.7678 12.5C21.7678 14.0125 20.5303 15.25 19.0178 15.25C17.5053 15.25 16.2678 14.0125 16.2678 12.5C16.2678 10.9875 17.5053 9.75 19.0178 9.75ZM19.0178 23.5C22.7303 23.5 26.9928 25.2738 27.2678 26.25H10.7678C11.0841 25.26 15.3191 23.5 19.0178 23.5ZM19.0178 7C15.9791 7 13.5178 9.46125 13.5178 12.5C13.5178 15.5387 15.9791 18 19.0178 18C22.0566 18 24.5178 15.5387 24.5178 12.5C24.5178 9.46125 22.0566 7 19.0178 7ZM19.0178 20.75C15.3466 20.75 8.01782 22.5925 8.01782 26.25V29H30.0178V26.25C30.0178 22.5925 22.6891 20.75 19.0178 20.75Z" fill="black"/>
			<path d="M27.2678 26.75H27.9281L27.7491 26.1144C27.6784 25.8634 27.5046 25.6532 27.3301 25.4882C27.1464 25.3145 26.9117 25.1446 26.6457 24.9819C26.1125 24.6558 25.4051 24.3291 24.6019 24.0387C22.9969 23.4584 20.9449 23 19.0178 23C17.0978 23 15.0562 23.4549 13.4545 24.0335C12.6529 24.3231 11.9458 24.6492 11.41 24.9757C11.1426 25.1386 10.9066 25.3084 10.7205 25.4818C10.5429 25.6474 10.3695 25.8539 10.2915 26.0979L10.0832 26.75H10.7678H27.2678ZM22.2678 12.5C22.2678 10.7114 20.8065 9.25 19.0178 9.25C17.2292 9.25 15.7678 10.7114 15.7678 12.5C15.7678 14.2886 17.2292 15.75 19.0178 15.75C20.8065 15.75 22.2678 14.2886 22.2678 12.5ZM14.0178 12.5C14.0178 9.73739 16.2552 7.5 19.0178 7.5C21.7804 7.5 24.0178 9.73739 24.0178 12.5C24.0178 15.2626 21.7804 17.5 19.0178 17.5C16.2552 17.5 14.0178 15.2626 14.0178 12.5ZM8.51782 26.25C8.51782 25.5193 8.87991 24.8422 9.55942 24.215C10.2423 23.5848 11.212 23.0393 12.327 22.5926C14.5579 21.6989 17.2447 21.25 19.0178 21.25C20.7909 21.25 23.4777 21.6989 25.7086 22.5926C26.8236 23.0393 27.7933 23.5848 28.4762 24.215C29.1557 24.8422 29.5178 25.5193 29.5178 26.25V28.5H8.51782V26.25Z" stroke="black"/>
		</g>
	</g>
	<defs>
		<filter id="filter0_d_24_21" x="4.01782" y="7" width="30" height="30" filterUnits="userSpaceOnUse" color-interpolation-filters="sRGB">
			<feFlood flood-opacity="0" result="BackgroundImageFix"/>
			<feColorMatrix in="SourceAlpha" type="matrix" values="0 0 0 0 0 0 0 0 0 0 0 0 0 0 0 0 0 0 127 0" result="hardAlpha"/>
			<feOffset dy="4"/>
			<feGaussianBlur stdDeviation="2"/>
			<feComposite in2="hardAlpha" operator="out"/>
			<feColorMatrix type="matrix" values="0 0 0 0 0 0 0 0 0 0 0 0 0 0 0 0 0 0 0.25 0"/>
			<feBlend mode="normal" in2="BackgroundImageFix" result="effect1_dropShadow_24_21"/>
			<feBlend mode="normal" in="SourceGraphic" in2="effect1_dropShadow_24_21" result="shape"/>
		</filter>
		<clipPath id="clip0_24_21">
			<rect width="36" height="36" fill="white" transform="translate(0.0178223)"/>
		</clipPath>
	</defs>
</svg>