<svg width="30" height="31" viewBox="0 0 30 31" fill="none" xmlns="http://www.w3.org/2000/svg">
<g id="List &#226;&#134;&#146; Item &#226;&#134;&#146; Link - Instagram &#226;&#134;&#146; SVG" clip-path="url(#clip0_27_502)">
<path id="Vector" d="M20 15.8998C19.8724 16.5514 19.6357 17.1769 19.3 17.7498C18.9678 18.315 18.5258 18.8081 18 19.1998C17.3046 19.7198 16.4676 20.0162 15.6 20.0498C14.743 20.0855 13.8935 19.8775 13.15 19.4498C12.392 19.0256 11.7815 18.3802 11.4 17.5998C10.8 16.3998 10.6663 15.1336 11 13.7998H9.6L9.7 20.6998C9.7 20.8336 9.75 20.9661 9.85 21.0998C9.95 21.2336 10.0662 21.2998 10.2 21.2998H20.6C20.7337 21.2998 20.8662 21.2336 21 21.0998C21.1337 20.9661 21.2 20.8336 21.2 20.6998V13.7998H19.8C20 14.4661 20.0662 15.1661 20 15.8998ZM15.4 18.3998C16.2 18.3998 16.9 18.0998 17.5 17.4998C18.1 16.8998 18.4 16.1836 18.4 15.3498C18.4071 14.535 18.1031 13.7482 17.55 13.1498C16.9837 12.5161 16.2837 12.1998 15.45 12.1998C14.6163 12.1998 13.9 12.4998 13.3 13.0998C12.7 13.6998 12.4 14.4161 12.4 15.2498C12.4 16.0836 12.6838 16.8161 13.25 17.4498C13.8163 18.0836 14.5 18.3998 15.3 18.3998H15.4ZM20.6 8.89981H19.2C19.0662 8.89981 18.9338 8.96605 18.8 9.0998C18.6663 9.23355 18.6 9.36605 18.6 9.4998V11.1998C18.7337 11.4661 18.9338 11.5998 19.2 11.5998H20.6C20.8 11.5998 20.95 11.5336 21.05 11.3998C21.1426 11.2866 21.1954 11.146 21.2 10.9998V9.4998C21.2 9.36605 21.1337 9.23355 21 9.0998C20.8662 8.96605 20.7337 8.89981 20.6 8.89981ZM15 0.299805C12.2662 0.299805 9.75 0.966055 7.45 2.2998C5.18215 3.601 3.30119 5.48196 2 7.7498C0.66625 10.0498 0 12.5661 0 15.2998C0 18.0336 0.66625 20.5498 2 22.8498C3.30119 25.1177 5.18215 26.9986 7.45 28.2998C9.75 29.6336 12.2662 30.2998 15 30.2998C17.7337 30.2998 20.25 29.6336 22.55 28.2998C24.8178 26.9986 26.6988 25.1177 28 22.8498C29.3337 20.5498 30 18.0336 30 15.2998C30 12.5661 29.3337 10.0498 28 7.7498C26.6988 5.48196 24.8178 3.601 22.55 2.2998C20.25 0.966055 17.7337 0.299805 15 0.299805ZM22.8 21.3998L22.7 21.4998V21.5998C22.7028 21.7579 22.6732 21.9148 22.613 22.061C22.5528 22.2072 22.4633 22.3395 22.35 22.4498C22.1186 22.6821 21.8223 22.839 21.5 22.8998H9.4C9.23744 22.9008 9.07673 22.8654 8.92964 22.7962C8.78255 22.727 8.65283 22.6257 8.55 22.4998C8.32266 22.2451 8.16732 21.9345 8.1 21.5998L8 21.3998L8.1 9.0998C8.1 8.76606 8.21625 8.46605 8.45 8.1998C8.68375 7.93356 8.96625 7.76605 9.3 7.6998H21.4C21.7222 7.7606 22.0186 7.91747 22.25 8.14981C22.4823 8.38124 22.6392 8.67756 22.7 8.9998L22.8 21.3998Z" fill="#7E7E7E"/>
</g>
<defs>
<clipPath id="clip0_27_502">
<rect width="30" height="30" fill="white" transform="translate(0 0.299805)"/>
</clipPath>
</defs>
</svg>
