<svg width="37" height="36" viewBox="0 0 37 36" fill="none" xmlns="http://www.w3.org/2000/svg">
<g id="Img">
<path id="Vector" d="M14.7588 14V11C14.7588 10.2044 15.0749 9.44129 15.6375 8.87868C16.2001 8.31607 16.9631 8 17.7588 8H21.7588C22.5544 8 23.3175 8.31607 23.8801 8.87868C24.4427 9.44129 24.7588 10.2044 24.7588 11C24.7588 11.7956 24.4427 12.5587 23.8801 13.1213C23.3175 13.6839 22.5544 14 21.7588 14H8.75879V25C8.75879 26.3261 9.28557 27.5979 10.2233 28.5355C11.1609 29.4732 12.4327 30 13.7588 30H25.7588C27.0849 30 28.3566 29.4732 29.2943 28.5355C30.232 27.5979 30.7588 26.3261 30.7588 25V14H27.0921" stroke="#111111" stroke-width="2.5"/>
</g>
</svg>
