<svg width="30" height="31" viewBox="0 0 30 31" fill="none" xmlns="http://www.w3.org/2000/svg">
<g id="List &#226;&#134;&#146; Item &#226;&#134;&#146; Link - YouTube &#226;&#134;&#146; SVG" clip-path="url(#clip0_27_500)">
<path id="Vector" d="M14.1 22.2998C14.0444 22.42 13.9582 22.5235 13.85 22.5998C13.7623 22.6625 13.6578 22.6973 13.55 22.6998C13.45 22.6998 13.3837 22.6661 13.35 22.5998C13.3114 22.5047 13.2944 22.4023 13.3 22.2998V18.5998H12.4V22.6998C12.3902 22.9261 12.442 23.1507 12.55 23.3498C12.65 23.5161 12.8 23.5998 13 23.5998C13.2 23.5998 13.3837 23.5336 13.55 23.3998C13.7163 23.2661 13.9 23.0998 14.1 22.8998V23.4998H15V18.5998H14.1V22.2998ZM8.7 17.7998V16.7998H12V17.7998H10.9V23.4998H9.8V17.7998H8.7ZM14.9 11.8998C14.7662 11.8998 14.65 11.8498 14.55 11.7498C14.5024 11.7048 14.4646 11.6505 14.4388 11.5903C14.413 11.5301 14.3998 11.4653 14.4 11.3998V8.39981C14.4 8.33355 14.4338 8.26606 14.5 8.1998C14.5663 8.13355 14.6838 8.0998 14.85 8.0998C15.0163 8.0998 15.15 8.13355 15.25 8.1998C15.299 8.2324 15.3386 8.27723 15.3649 8.32985C15.3912 8.38248 15.4033 8.44106 15.4 8.4998V11.3998C15.4 11.5336 15.35 11.6498 15.25 11.7498C15.205 11.7974 15.1507 11.8352 15.0905 11.861C15.0303 11.8868 14.9655 11.9 14.9 11.8998ZM17.4 22.2998C17.4 21.4998 17.4338 20.6661 17.5 19.7998C17.5 19.6661 17.45 19.5498 17.35 19.4498C17.25 19.3498 17.15 19.2998 17.05 19.2998H16.9L16.6 19.4998V22.4998L16.9 22.6998L17.1 22.7998C17.2338 22.7998 17.3162 22.7661 17.35 22.6998C17.3838 22.6336 17.4 22.4998 17.4 22.2998ZM17.5 18.4998C17.7663 18.4998 17.9838 18.5998 18.15 18.7998C18.3162 18.9998 18.4 19.2998 18.4 19.6998V22.4998C18.4 22.8336 18.3337 23.0998 18.2 23.2998C18.145 23.3928 18.0627 23.4666 17.9643 23.5113C17.866 23.5561 17.7562 23.5695 17.65 23.5498C17.4448 23.5236 17.2434 23.4733 17.05 23.3998C16.8997 23.3474 16.7748 23.2403 16.7 23.0998V23.4998H15.7V16.7998H16.7V18.9998C16.8337 18.8661 16.9662 18.7498 17.1 18.6498C17.2132 18.5572 17.3538 18.5045 17.5 18.4998ZM22.4 24.8998C22.7337 24.6336 22.9338 23.7661 23 22.2998C23.0662 21.5661 23.1337 20.8661 23.2 20.1998C23.2 19.5998 23.1337 18.9336 23 18.1998C22.8662 16.7336 22.65 15.8336 22.35 15.4998C22.05 15.1661 20.7663 14.9336 18.5 14.7998L15.2 14.6998L11.8 14.7998C9.53375 14.9336 8.25 15.1661 7.95 15.4998C7.65 15.8336 7.43375 16.7336 7.3 18.1998C7.23344 18.8644 7.20006 19.5319 7.2 20.1998C7.2 20.8661 7.23375 21.5661 7.3 22.2998C7.43375 23.7661 7.65 24.6498 7.95 24.9498C8.25 25.2498 9.53375 25.4998 11.8 25.6998L15.2 25.7998L18.5 25.6998C20.7663 25.4998 22.0662 25.2661 22.4 24.9998V24.8998ZM10.5 5.2998H9.3L10.7 9.7998V12.5998H11.9V9.5998L13.3 5.2998H12.1L11.4 8.1998H11.3L10.5 5.2998ZM13.4 8.4998V11.2998C13.4 11.7661 13.5337 12.1336 13.8 12.3998C14.0662 12.6661 14.4338 12.7998 14.9 12.7998C15.3663 12.7998 15.7338 12.6661 16 12.3998C16.2663 12.1336 16.4 11.7661 16.4 11.2998V8.4998C16.4 8.0998 16.2663 7.76606 16 7.4998C15.7338 7.23355 15.3663 7.0998 14.9 7.0998C14.4338 7.0998 14.0662 7.23355 13.8 7.4998C13.5337 7.76606 13.4 8.0998 13.4 8.4998ZM17.3 7.2998V11.7998C17.2902 12.0261 17.342 12.2507 17.45 12.4498C17.55 12.6161 17.7162 12.6998 17.95 12.6998C18.1838 12.6998 18.4 12.6498 18.6 12.5498C18.8 12.4498 19 12.2998 19.2 12.0998V12.6998H20.3V7.2998H19.2V11.2998C19.1361 11.4304 19.0306 11.5359 18.9 11.5998C18.7925 11.6594 18.6728 11.6936 18.55 11.6998C18.45 11.6998 18.3838 11.6836 18.35 11.6498C18.3162 11.6161 18.3 11.5336 18.3 11.3998V7.1998H17.3V7.2998ZM15 0.299805C17.7337 0.299805 20.25 0.966055 22.55 2.2998C24.8178 3.601 26.6988 5.48196 28 7.7498C29.3337 10.0498 30 12.5661 30 15.2998C30 18.0336 29.3337 20.5498 28 22.8498C26.6988 25.1177 24.8178 26.9986 22.55 28.2998C20.25 29.6336 17.7337 30.2998 15 30.2998C12.2662 30.2998 9.75 29.6336 7.45 28.2998C5.18215 26.9986 3.30119 25.1177 2 22.8498C0.66625 20.5498 0 18.0336 0 15.2998C0 12.5661 0.66625 10.0498 2 7.7498C3.30119 5.48196 5.18215 3.601 7.45 2.2998C9.75 0.966055 12.2662 0.299805 15 0.299805ZM20.7 20.3998L20.6 19.8998C20.6 19.6998 20.5662 19.5498 20.5 19.4498C20.4674 19.4008 20.4226 19.3612 20.37 19.3349C20.3173 19.3086 20.2587 19.2965 20.2 19.2998C20.1413 19.2965 20.0827 19.3086 20.03 19.3349C19.9774 19.3612 19.9326 19.4008 19.9 19.4498C19.8337 19.5498 19.8 19.6998 19.8 19.8998V20.3998H20.7ZM20.3 18.4998C20.7 18.4998 21.0163 18.6161 21.25 18.8498C21.4837 19.0836 21.6 19.4336 21.6 19.8998V21.0998H19.8V22.0998C19.8 22.2998 19.8337 22.4498 19.9 22.5498C19.9662 22.6498 20.0838 22.6998 20.25 22.6998C20.4163 22.6998 20.5337 22.6498 20.6 22.5498C20.6663 22.4498 20.7 22.2661 20.7 21.9998V21.7998H21.6V22.0998C21.6 22.5661 21.4837 22.9336 21.25 23.1998C21.0163 23.4661 20.6838 23.5998 20.25 23.5998C19.8163 23.5998 19.4837 23.4661 19.25 23.1998C19.0162 22.9336 18.9 22.5661 18.9 22.0998V19.8998C18.9 19.4998 19.0337 19.1661 19.3 18.8998C19.5662 18.6336 19.9 18.4998 20.3 18.4998Z" fill="#7E7E7E"/>
</g>
<defs>
<clipPath id="clip0_27_500">
<rect width="30" height="30" fill="white" transform="translate(0 0.299805)"/>
</clipPath>
</defs>
</svg>
